HIERARCHY
ROOT RootJoint
{
    OFFSET   0.000000   0.000000   0.000000
    CHANNELS 6 Xposition Yposition Zposition Xrotation Yrotation Zrotation
    JOINT pelvis_lowerback
    {
        OFFSET   0.000000   0.093605   0.000000
        CHANNELS 3 Xrotation Yrotation Zrotation
        JOINT lowerback_torso
        {
            OFFSET   0.000000   0.100000   0.000000
            CHANNELS 3 Xrotation Yrotation Zrotation
            JOINT torso_head
            {
                OFFSET   0.000000   0.282350   0.000000
                CHANNELS 3 Xrotation Yrotation Zrotation
                End Site
                {
                    OFFSET   0.000000   0.192650   0.000000
                }
            }
            JOINT rTorso_Clavicle
            {
                OFFSET  -0.001000   0.157500   0.000000
                CHANNELS 3 Xrotation Yrotation Zrotation
                JOINT rShoulder
                {
                    OFFSET  -0.117647   0.000000   0.000000
                    CHANNELS 3 Xrotation Yrotation Zrotation
                    JOINT rElbow
                    {
                        OFFSET  -0.245000   0.000000   0.000000
                        CHANNELS 3 Xrotation Yrotation Zrotation
                        JOINT rWrist
                        {
                            OFFSET  -0.240000   0.000000   0.000000
                            CHANNELS 3 Xrotation Yrotation Zrotation
                            End Site
                            {
                                OFFSET  -0.116353  -0.002500   0.000000
                            }
                        }
                    }
                }
            }
            JOINT lTorso_Clavicle
            {
                OFFSET   0.001000   0.157500   0.000000
                CHANNELS 3 Xrotation Yrotation Zrotation
                JOINT lShoulder
                {
                    OFFSET   0.117647   0.000000   0.000000
                    CHANNELS 3 Xrotation Yrotation Zrotation
                    JOINT lElbow
                    {
                        OFFSET   0.245000   0.000000   0.000000
                        CHANNELS 3 Xrotation Yrotation Zrotation
                        JOINT lWrist
                        {
                            OFFSET   0.240000   0.000000   0.000000
                            CHANNELS 3 Xrotation Yrotation Zrotation
                            End Site
                            {
                                OFFSET   0.116353  -0.002500   0.000000
                            }
                        }
                    }
                }
            }
        }
    }
    JOINT rHip
    {
        OFFSET  -0.100000  -0.051395   0.000000
        CHANNELS 3 Xrotation Yrotation Zrotation
        JOINT rKnee
        {
            OFFSET   0.000000  -0.410000   0.000000
            CHANNELS 3 Xrotation Yrotation Zrotation
            JOINT rAnkle
            {
                OFFSET   0.000000  -0.390000   0.000000
                CHANNELS 3 Xrotation Yrotation Zrotation
                JOINT rToeJoint
                {
                    OFFSET   0.000000  -0.050000   0.130000
                    CHANNELS 3 Xrotation Yrotation Zrotation
                    End Site
                    {
                        OFFSET  -0.010000   0.002000   0.060000
                    }
                }
            }
        }
    }
    JOINT lHip
    {
        OFFSET   0.100000  -0.051395   0.000000
        CHANNELS 3 Xrotation Yrotation Zrotation
        JOINT lKnee
        {
            OFFSET   0.000000  -0.410000   0.000000
            CHANNELS 3 Xrotation Yrotation Zrotation
            JOINT lAnkle
            {
                OFFSET   0.000000  -0.390000   0.000000
                CHANNELS 3 Xrotation Yrotation Zrotation
                JOINT lToeJoint
                {
                    OFFSET   0.000000  -0.050000   0.130000
                    CHANNELS 3 Xrotation Yrotation Zrotation
                    End Site
                    {
                        OFFSET   0.010000   0.002000   0.060000
                    }
                }
            }
        }
    }
}
MOTION
Frames: 11
Frame Time:   0.008333
 -2.346208   0.712007   3.925010   7.564494  -3.596004  -2.948971  25.097616   1.159055  -0.305469  -6.340557  -0.565178   1.672166 -15.653951   0.893748  -0.681979  -4.633541  12.171502   5.097727   2.653716  14.626789  36.713589  -0.114049  42.912278   0.051026   4.038070   2.388852  -1.683635  -5.009420 -13.703521  -2.903788  -1.723356 -12.117018 -30.459709  -0.166681 -46.906574  -0.068889  -0.718458  -4.622120   1.781142 -49.822334  -1.352422  -4.767413  83.013843  -0.003583  -0.001201 -40.806672  -6.203628  -2.119280   1.111639   0.000097  -0.000197 -58.075236  -2.687843   6.910055  95.016849  -0.000899  -0.000698 -19.114828   7.006912   4.619175 -36.631016  -0.003873   0.002138
 -2.344251   0.719796   3.927488   7.227394  -3.333682  -2.641345  24.896027   0.958828  -0.629283  -6.196380  -0.637234   1.561267 -15.518088   0.633156  -0.664681  -5.158101  11.886819   4.012291   3.086058  14.280726  36.944590  -0.127236  45.202369   0.052631   3.933449   2.266831  -1.583378  -5.071053 -13.440023  -1.286400  -2.137432 -12.149905 -30.059675  -0.182395 -48.766087  -0.073669  -0.846217  -4.754606   1.467843 -48.656250  -1.519043  -5.392685  81.726340  -0.001197   0.001967 -39.519631  -6.862767  -1.373097   0.010652   0.005871   0.008745 -56.718389  -2.649028   6.163844  93.176073   0.003316   0.005728 -16.125350   7.259960   4.028626 -46.724520  -0.037111   0.012818
 -2.342132   0.730926   3.929647   6.998955  -2.987950  -2.221668  24.666444   0.721549  -1.029514  -5.964783  -0.740852   1.406597 -15.312116   0.379645  -0.657745  -5.605080  11.531379   2.887799   3.532815  13.919342  37.146316  -0.133273  47.371588   0.049478   3.837192   2.391847  -1.407677  -5.140542 -13.124151   0.399139  -2.516790 -12.153817 -29.594997  -0.191985 -50.526984  -0.075100  -0.963000  -5.062226   1.155956 -47.323556  -1.697350  -6.117219  79.770180   0.001124   0.005628 -37.759999  -7.461417  -0.742111  -1.236989   0.009508   0.016405 -55.611750  -2.564000   5.241061  91.364510   0.005519   0.011569 -13.952588   7.405267   3.364862 -46.379709  -0.027880   0.010480
 -2.339922   0.744199   3.931898   6.895245  -2.669595  -1.761244  24.297511   0.507953  -1.455696  -5.744752  -0.834046   1.221742 -15.075541   0.143795  -0.660418  -5.982077  11.121174   1.752667   3.995750  13.531982  37.312879  -0.136695  49.388656   0.046890   3.747127   2.512846  -1.180222  -5.200823 -12.745964   2.081659  -2.849048 -12.110496 -29.102760  -0.197782 -52.165998  -0.076203  -1.071983  -5.364477   0.884485 -45.887902  -1.867909  -6.815411  77.299984   0.002811   0.009185 -35.728485  -7.996281  -0.189948  -2.488099   0.011170   0.021754 -54.520588  -2.450224   4.316833  89.192730   0.007273   0.017827 -11.224893   7.510245   2.749718 -46.103857  -0.020952   0.008278
 -2.337640   0.758619   3.934447   6.903521  -2.392046  -1.287717  23.758622   0.319958  -1.881803  -5.595574  -0.912719   1.021148 -14.831074  -0.075492  -0.667715  -6.308183  10.672262   0.610768   4.465046  13.125211  37.441640  -0.140640  51.262141   0.047420   3.661371   2.578047  -0.928068  -5.254337 -12.314426   3.737969  -3.136968 -12.024258 -28.597769  -0.201961 -53.687484  -0.078410  -1.175386  -5.611697   0.645786 -44.402177  -2.042422  -7.473715  74.488205   0.003714   0.012472 -33.540376  -8.471694   0.304954  -3.724680   0.011488   0.025243 -53.392715  -2.326665   3.427926  86.740741   0.008464   0.023948  -8.328283   7.571028   2.187867 -45.883157  -0.015752   0.006387
 -2.335315   0.773426   3.937383   6.993992  -2.146742  -0.813361  23.059933   0.153847  -2.297855  -5.545064  -0.981093   0.814631 -14.591926  -0.279808  -0.676482  -6.603459  10.203082  -0.533496   4.927754  12.708427  37.530175  -0.146454  53.003956   0.051740   3.579605   2.590687  -0.685224  -5.312284 -11.850112   5.358123  -3.391467 -11.907160 -28.083812  -0.205815 -55.099969  -0.082282  -1.273649  -5.801102   0.444692 -42.895418  -2.223764  -8.095597  71.479607   0.003707   0.015252 -31.273106  -8.894046   0.755293  -4.955060   0.010914   0.027315 -52.234057  -2.204953   2.582055  84.124205   0.008850   0.029248  -5.407846   7.596371   1.671901 -45.706579  -0.011849   0.004856
 -2.332903   0.787719   3.940940   7.151156  -1.990142  -0.399115  22.165078   0.038008  -2.660538  -5.613529  -1.022364   0.620484 -14.358022  -0.469050  -0.684575  -6.880982   9.727831  -1.687529   5.376117  12.289862  37.574955  -0.155808  54.627058   0.061106   3.502374   2.573227  -0.456178  -5.375380 -11.355174   6.937807  -3.614730 -11.763581 -27.568170  -0.210576 -56.413436  -0.088261  -1.367530  -5.944567   0.268014 -41.451097  -2.449654  -8.636146  68.479051   0.003973   0.018514 -28.949390  -9.293309   1.194294  -3.942123   0.007544   0.015776 -50.875770  -2.106379   1.843210  81.155802   0.008919   0.035158  -2.144386   7.602504   1.222103 -42.736267   0.001485  -0.002656
 -2.331124   0.802843   3.946033   6.759681  -2.078130  -0.778236  20.949335   0.094905  -2.274976  -4.747618  -1.034664   0.450185 -13.564120  -0.707266  -0.739764  -6.780763   9.524746  -3.866139   5.983824  12.335537  38.295609  -0.139500  55.627022   0.049498   3.468818   3.020464  -0.417087  -4.939035 -10.393581   9.233974  -3.282685 -11.682606 -27.497339  -0.198950 -57.973068  -0.068533  -1.378963  -6.403139   0.635929 -39.116223  -2.841129  -8.265603  65.086249  -0.000176   0.015872 -25.876309  -9.498498   2.128953  -6.770160   0.019104   0.020280 -48.603443  -2.428158   1.975181  78.046506   0.008476   0.036010   0.937587   7.647961   0.768922 -49.656416  -0.013882   0.004792
 -2.329600   0.819177   3.951604   6.286441  -2.179296  -1.094029  19.696646   0.097653  -1.999960  -3.830682  -1.052869   0.274190 -12.746311  -0.946490  -0.781491  -6.595659   9.199553  -6.002771   6.655873  12.313342  38.957170  -0.125817  56.529542   0.041119   3.450821   3.306109  -0.074750  -4.491514  -9.285254  11.453307  -2.867997 -11.509320 -27.412527  -0.186497 -59.424956  -0.053771  -1.370095  -6.918881   0.651720 -36.671952  -3.275969  -7.928914  61.640115  -0.000419   0.015363 -22.394882  -9.653460   3.070699  -8.811070   0.024142   0.024228 -46.454469  -2.710262   2.069312  75.300402   0.008200   0.036376   3.358647   7.661063   0.271371 -48.725376  -0.008275   0.003561
 -2.328291   0.836121   3.957659   5.815264  -2.366558  -1.367757  18.366862   0.112980  -1.793067  -2.996211  -1.060053   0.065013 -11.961391  -1.170738  -0.820774  -6.382826   8.776245  -8.059405   7.350191  12.228098  39.552554  -0.116008  57.347582   0.037108   3.435839   3.441037   0.367287  -4.088243  -8.104169  13.545065  -2.427678 -11.267046 -27.319142  -0.176911 -60.758539  -0.046644  -1.360858  -7.328148   0.538636 -34.306959  -3.685623  -7.597976  58.215061   0.001468   0.017468 -18.912721  -9.761049   3.943652  -8.358674   0.017443   0.017319 -44.244469  -2.969009   2.181918  72.377439   0.009551   0.038648   6.221612   7.668731  -0.192853 -47.980538  -0.004851   0.001612
 -2.327256   0.853303   3.964171   5.386202  -2.597129  -1.631542  16.948385   0.124921  -1.617628  -2.296507  -1.069615  -0.156047 -11.225461  -1.380233  -0.856625  -6.173225   8.292499 -10.032287   8.041348  12.099706  40.082304  -0.109697  58.092869   0.036759   3.423178   3.458892   0.816058  -3.745650  -6.903184  15.512791  -1.987258 -10.985791 -27.217871  -0.171097 -61.987323  -0.046300  -1.353018  -7.630345   0.390178 -32.023635  -4.083203  -7.231267  55.037103   0.003994   0.019703 -15.506649  -9.779383   4.766203  -6.166911   0.005294   0.004242 -41.987929  -3.225866   2.328640  69.275316   0.011610   0.041956   9.313985   7.670327  -0.638558 -47.384628  -0.002793  -0.000119
